<svg version="1.1" xmlns="http://www.w3.org/2000/svg" xmlns:xlink="http://www.w3.org/1999/xlink" x="0px" y="0px"
	 width="240.1px" height="23.4px" viewBox="0 0 240.1 23.4" enable-background="new 0 0 240.1 23.4" xml:space="preserve">

	<path fill="#FFFFFF" d="M203.5,2.9l-3.7,11l-3.3-11h-6.4v0.4c0.9,0.1,1.5,0.6,1.5,2.2v11c0,1.8-0.6,3.2-2.2,3.4v0.4h5.4V20
		c-1.6-0.2-2.2-1.4-2.2-3.3V4.6h0.1l5.2,15.8h0.7l5.5-16.1h0c-0.1,1.7-0.1,4.7-0.1,6.1v7c0,2-1.1,2.4-1.8,2.5v0.4h7.6V20
		c-0.6-0.1-1.7-0.5-1.7-2.5V5.7c0-1.9,1.1-2.3,1.7-2.3V2.9H203.5z M186.7,5.7c0-2,1.1-2.3,1.9-2.3V2.9h-7.9v0.4
		c0.7,0.1,1.8,0.4,1.8,2.3v11.8c0,2-1.1,2.4-1.8,2.5v0.4h7.6V20c-0.6-0.1-1.6-0.5-1.6-2.5V5.7z M216.9,19.8v-8.1h1.4
		c2.1,0,2.9,0.7,3.4,2.2h0.5v-5h-0.5c-0.6,1.4-1.4,2.2-3.4,2.2h-1.4V3.5h1.7c2,0,4.4,0.4,5.4,3.3h0.5V2.9h-13.2v0.4
		c0.6,0.1,1.5,0.3,1.5,2.2v12c0,2-1,2.3-1.5,2.4v0.4h13.4v-4h-0.5c-1,2.4-1.9,3.5-5.1,3.5H216.9z M164.7,2.9v3.9h0.5
		c1.1-2.6,2.8-3.3,4.3-3.3h0.6v14c0,2-1.2,2.4-1.9,2.5v0.4h8V20c-0.8-0.1-1.9-0.5-1.9-2.5v-14h0.6c1.7,0,3.2,0.8,4.3,3.3h0.5V2.9
		H164.7z M231,20c-2.5,0-3.6-2-4.3-3.7h-0.5v3.7c1.1,0.3,2.8,0.5,4.7,0.5c3.5,0,6.8-1.5,6.8-5.4c0-2.5-1.3-4.3-4.6-5.5
		c-2.3-0.8-3.6-1.7-3.6-3.7c0-1.9,1.5-2.9,3-2.9c2.2,0,3.3,1.6,4,3.6h0.5V3.1c-1-0.2-2.5-0.5-4.2-0.5c-4.3,0-6.6,2.1-6.6,5.1
		c0,3.1,2.1,4.3,4.4,5.2c2.4,1,3.7,1.9,3.7,4C234.2,19,232.9,20,231,20 M35.2,5.7c0-2,1.1-2.3,1.8-2.3V2.9h-7.8v0.4
		C29.9,3.4,31,3.7,31,5.7V11h-5.9V5.7c0-2,1.1-2.3,1.8-2.3V2.9h-7.8v0.4c0.7,0.1,1.8,0.4,1.8,2.3v11.8c0,2-1.1,2.4-1.8,2.5v0.4h7.8
		V20c-0.7-0.1-1.8-0.5-1.8-2.5v-5.7H31v5.7c0,2-1.1,2.4-1.8,2.5v0.4H37V20c-0.7-0.1-1.8-0.5-1.8-2.5V5.7z M44.1,19.8v-8.1h1.4
		c2.1,0,2.8,0.7,3.4,2.2h0.5v-5h-0.5c-0.6,1.4-1.4,2.2-3.4,2.2h-1.4V3.5h1.7c2,0,4.4,0.3,5.4,3.3h0.5V2.9H38.4v0.4
		c0.6,0.1,1.5,0.3,1.5,2.2v12c0,2-1,2.3-1.5,2.4v0.4H52v-4h-0.5c-1.2,3-2.6,3.5-5.1,3.5H44.1z M3,2.9v3.9h0.5
		c1.1-2.6,2.7-3.3,4.3-3.3h0.6v14c0,2-1.2,2.4-1.9,2.5v0.4h8V20c-0.8-0.1-1.9-0.5-1.9-2.5v-14h0.6c1.7,0,3.2,0.8,4.3,3.3H18V2.9H3z
		 M64.4,20c-2.5,0-3.6-2-4.3-3.7h-0.5v3.7c1.1,0.3,2.8,0.5,4.6,0.5c3.5,0,6.9-1.5,6.9-5.4c0-2.5-1.3-4.3-4.6-5.5
		C64.2,8.9,62.8,8,62.8,6c0-1.9,1.5-2.9,3-2.9c2.2,0,3.3,1.6,4,3.6h0.5V3c-1-0.2-2.5-0.4-4.2-0.4c-4.3,0-6.6,2.1-6.6,5.1
		c0,3.1,2.1,4.3,4.4,5.2c2.4,1,3.7,1.9,3.7,4C67.6,19,66.3,20,64.4,20 M152.2,20c-2.5,0-3.6-2-4.3-3.7h-0.5v3.7
		c1.1,0.3,2.8,0.5,4.7,0.5c3.5,0,6.8-1.5,6.8-5.4c0-2.5-1.3-4.3-4.6-5.5c-2.3-0.8-3.6-1.7-3.6-3.7c0-1.9,1.5-2.9,3-2.9
		c2.2,0,3.4,1.6,4.1,3.6h0.5V3.1c-1.1-0.2-2.5-0.5-4.2-0.5c-4.3,0-6.7,2.1-6.7,5.1c0,3.1,2.1,4.3,4.4,5.2c2.4,1,3.7,1.9,3.7,4
		C155.5,19,154.1,20,152.2,20 M71.8,2.9v3.9h0.5c1.1-2.6,2.7-3.3,4.3-3.3h0.6v14c0,2-1.2,2.4-1.9,2.5v0.4h7.9V20
		c-0.8-0.1-1.8-0.5-1.8-2.5v-14H82c1.7,0,3.2,0.8,4.3,3.3h0.5V2.9H71.8z M131.5,2.9v3.9h0.5c1.1-2.6,2.8-3.3,4.3-3.3h0.6v14
		c0,2-1.2,2.4-1.9,2.5v0.4h8V20c-0.8-0.1-1.9-0.5-1.9-2.5v-14h0.6c1.7,0,3.2,0.8,4.3,3.3h0.5V2.9H131.5z M128.6,5.7
		c0-2,1.1-2.3,1.8-2.4V2.9h-7.8v0.4c0.7,0.1,1.8,0.4,1.8,2.4v11.7c0,2-1.1,2.4-1.8,2.5v0.4h7.8V20c-0.7-0.1-1.8-0.5-1.8-2.5V5.7z
		 M120.2,18l-4.6-15.1h-5.6v0.4c0.8,0.1,1.1,0.6,1.1,1c0,0.3-0.1,0.6-0.2,1l-3.7,10.4c-1.2,3.3-2,4.2-2.9,4.3v0.4h4.9V20
		c-0.9-0.1-1.6-0.9-1.6-1.9c0-0.8,0.2-1.5,0.5-2.5l0.4-1.1h6.1c0.3,1.5,1,3.2,1,4.3c0,0.6-0.4,1.2-1.2,1.3v0.4h7.6V20
		C121.3,19.9,120.7,19.4,120.2,18 M108.9,13.7l3-8.8h0.1l2.5,8.8H108.9z M103.9,20.4V20c-0.6-0.1-0.8-0.4-1.6-3
		c-1-3.3-2.2-5.4-5.2-5.5l0.1-0.2c2.8-0.1,5.1-1.4,5.1-4.2c0-3.4-3.6-4.1-7.5-4.1h-6.9v0.4c0.7,0.1,1.8,0.3,1.8,2.3v11.8
		c0,2-1.1,2.4-1.8,2.5v0.4h7.5V20c-0.7-0.1-1.5-0.6-1.5-2.6v-5.5h0.3c2,0,3.1,2.2,4.1,5.7c0.6,2.1,0.7,2.5,0.7,2.7v0.1H103.9z
		 M94.4,11.2c-0.2,0-0.4,0-0.6,0V3.5c0.3-0.1,0.7-0.1,0.9-0.1c2.3,0,3.6,0.9,3.6,3.5C98.3,9.9,96.9,11.2,94.4,11.2"/>
</svg>
