<?xml version="1.0" encoding="utf-8"?>
<!-- Generator: Adobe Illustrator 18.1.1, SVG Export Plug-In . SVG Version: 6.00 Build 0)  -->
<!DOCTYPE svg PUBLIC "-//W3C//DTD SVG 1.1//EN" "http://www.w3.org/Graphics/SVG/1.1/DTD/svg11.dtd">
<svg version="1.1" id="Layer_1" xmlns="http://www.w3.org/2000/svg" xmlns:xlink="http://www.w3.org/1999/xlink" x="0px" y="0px" width="550px" height="90px" viewBox="0 0 550 90" enable-background="new 0 0 550 90" xml:space="preserve">
	<rect x="448.6" y="18" fill="#FFFFFF" width="101.4" height="72"/>
	<rect x="448.6" y="0" fill="#EF4123" width="101.4" height="18"/>
	<rect x="448.6" y="36" fill="#EF4123" width="101.4" height="18"/>
	<rect x="448.6" y="72" fill="#EF4123" width="101.4" height="18"/>
	<polygon fill="#0C2B57" points="514.8,94.6 -6,94.6 -6,0 458,0 "/>
	<g>
		<polygon opacity="0.3" fill="#FFFFFF" points="492.6,57.9 486.4,47.3 483.4,56.4 464.7,56.4 479.9,67.1 474.1,84.7 489.2,73.6
		504.4,84.6 498.6,67.1 498.6,67.1 	"/>
		<polygon opacity="0.3" fill="#FFFFFF" points="385,56.4 379.2,38.6 373.4,56.4 354.7,56.4 369.9,67.1 364.1,84.7 379.2,73.6
		394.4,84.6 388.6,67.1 403.8,56.4 	"/>
		<polygon opacity="0.2" fill="#FFFFFF" points="445.2,13.4 439.4,-4.4 433.6,13.4 414.8,13.4 430,24.3 424.2,42 439.4,30.9
		454.5,41.9 448.7,24.3 463.9,13.4 	"/>
		<polygon opacity="0.2" fill="#FFFFFF" points="439.4,79.6 434.2,95.4 444.5,95.4 	"/>
		<polygon opacity="0.2" fill="#FFFFFF" points="128,13.4 122.2,-4.4 116.5,13.4 97.7,13.4 112.9,24.3 107.1,42 122.2,30.9
		137.4,41.9 131.6,24.3 146.8,13.4 	"/>
		<polygon opacity="0.2" fill="#FFFFFF" points="328.6,13.4 322.8,-4.4 317,13.4 298.3,13.4 313.4,24.3 307.7,42 322.8,30.9
		338,41.9 332.2,24.3 347.4,13.4 	"/>
		<polygon opacity="0.3" fill="#FFFFFF" points="228.3,13.4 222.5,-4.4 216.7,13.4 198,13.4 213.2,24.3 207.4,42 222.5,30.9
		237.7,41.9 231.9,24.3 247.1,13.4 	"/>
		<polygon opacity="0.3" fill="#FFFFFF" points="38.3,13.4 32.5,-4.4 26.7,13.4 8,13.4 23.2,24.3 17.4,42 32.5,30.9 47.7,41.9
		41.9,24.3 57.1,13.4 	"/>
	</g>
	<g>
		<path
			fill="#FFFFFF"
			d="M26,63.7v0.4c-0.8,0.1-1.8,0.7-1.8,2.7v13c0,5.3,1.6,8.5,5.8,8.5c4.5,0,6.3-3.3,6.3-9v-7
		c0-1.6-0.1-4.8-0.3-5.9c-0.2-1.4-0.9-2.2-2.1-2.3v-0.4h7v0.4c-1,0.2-1.8,0.9-2,2.4c-0.2,1.3-0.3,4.3-0.3,5.9l-0.1,7.6
		c-0.1,6.2-2.9,10.5-9.9,10.5c-3.2,0-5.5-0.6-7.2-1.7c-3-2-3.8-5.5-3.8-9.4V66.8c0-2-1-2.6-1.8-2.7v-0.4H26z"/>
		<path
			fill="#FFFFFF"
			d="M42.8,87.1l-0.1-3.4h0.5c1.1,3.4,3.8,5,6.9,5c2.8,0,4.8-1.4,4.8-4c0-2.6-1.7-4-5.6-5.5
		c-4.3-1.6-6.6-3.9-6.6-7.8c0-5.3,4.2-8.1,10.1-8.1c2.3,0,5.2,0.5,7.1,1.5l0.1,1.9l0.1,3.1h-0.5C58.5,66.3,55.9,65,53,65
		c-2.6,0-4.7,1.2-4.7,3.7c0,2.6,2.1,3.6,6,5.1c4.9,1.9,7,4.1,7,8.1c0,5.5-4.4,8.5-10.8,8.5c-2.3,0-5.4-0.3-7.7-1.3L42.8,87.1z"/>
		<path
			fill="#FFFFFF"
			d="M79.3,71.7c5.6,0,8.1,3.2,8.1,9.1l-0.2,0.3H76.7v0.4c0.2,3.6,2.3,5.8,5.8,5.8c1.5,0,3.1-0.3,4.3-1.2
		l0.3,0.2c-1.4,2.3-4.1,4.2-8.2,4.2c-5.4,0-8.9-3.9-8.9-9C70,74.3,75.4,71.7,79.3,71.7z M78.6,79.6c1.9,0,2.5-0.1,2.8-0.4
		c0.1-0.2,0.1-0.8,0.1-1.2c0-3.9-0.7-4.9-2.2-4.9c-1.2,0-2,1.3-2.3,2.9c-0.3,1.3-0.3,2.8-0.3,3.6H78.6z"/>
		<path fill="#FFFFFF" d="M97.1,86.9c0,2,0.9,2.6,1.8,2.8v0.4h-10v-0.4c0.9-0.1,1.8-0.8,1.8-2.8V66.8c0-2-1.1-2.6-1.8-2.7v-0.4
		l8.2-0.3l0.1,0.1c-0.1,0.9-0.1,1.9-0.1,3.1V86.9z"/>
		<path
			fill="#FFFFFF"
			d="M109.4,71.7c5.6,0,8.1,3.2,8.1,9.1l-0.2,0.3h-10.7v0.4c0.2,3.6,2.3,5.8,5.8,5.8c1.5,0,3.1-0.3,4.3-1.2
		l0.3,0.2c-1.4,2.3-4.1,4.2-8.2,4.2c-5.4,0-8.9-3.9-8.9-9C100,74.3,105.4,71.7,109.4,71.7z M108.6,79.6c1.9,0,2.5-0.1,2.8-0.4
		c0.1-0.2,0.1-0.8,0.1-1.2c0-3.9-0.7-4.9-2.2-4.9c-1.2,0-2,1.3-2.3,2.9c-0.3,1.3-0.3,2.8-0.3,3.6H108.6z"/>
		<path
			fill="#FFFFFF"
			d="M129.4,71.7c4.5,0,7,2,7,4.2c0,1.4-0.9,3-3.6,3c-0.4,0-1.4-0.1-1.5-0.2c0-0.9,0-1.7,0-2.2
		c0-2.5-0.7-3.4-1.9-3.4c-2,0-3.2,2.8-3.2,6.8c0,4.7,2.1,7.4,5.6,7.4c1.6,0,2.9-0.4,4-1.2l0.3,0.2c-1.7,3.1-5.3,4.2-7.8,4.2
		c-5.1,0-8.7-3.4-8.7-9C119.5,75.2,123.9,71.7,129.4,71.7z"/>
		<path fill="#FFFFFF" d="M146,66.3v6.1h5.5l-0.3,2.2H146v9.8c0,2.3,1.1,3.2,2.9,3.2c1,0,1.8-0.2,2.5-0.6l0.2,0.2
		c-1.3,2.1-3.8,3.3-6.3,3.3c-4,0-5.6-2.3-5.6-5.2V74.6h-2.1v-0.5c1.9-0.7,5.9-4.1,7.9-7.8H146z"/>
		<path
			fill="#FFFFFF"
			d="M160.6,86.9c0,2,0.9,2.6,1.8,2.8v0.4h-10v-0.4c0.9-0.1,1.8-0.8,1.8-2.8V75.6c0-2-1.1-2.6-1.8-2.7v-0.4
		l8.2-0.4l0.1,0.1c-0.1,1.3-0.2,2.7-0.2,4.2V86.9z M157.4,62.9c2.1,0,3.6,1.2,3.6,3.3c0,1.9-1.5,3.3-3.6,3.3c-2,0-3.6-1.2-3.6-3.3
		C153.8,64.2,155.4,62.9,157.4,62.9z"/>
		<path fill="#FFFFFF" d="M183.1,80.9c0,5.7-4.3,9.6-9.8,9.6c-6,0-9.8-3.1-9.8-9.2c0-5.8,4.2-9.6,9.8-9.6
		C179.3,71.7,183.1,74.8,183.1,80.9z M170.4,81.1c0,5.8,1,7.9,3,7.9c1.7,0,2.9-2.1,2.9-8c0-5.7-0.9-7.8-3-7.8
		C171.6,73.2,170.4,75.3,170.4,81.1z"/>
		<path
			fill="#FFFFFF"
			d="M197.9,79c0-2.9-1.1-4-2.8-4c-1.1,0-2.1,0.6-2.3,1.4v10.8c0,1.9,0.6,2.5,1.3,2.6v0.4h-9.4v-0.4
		c0.9-0.1,1.8-0.8,1.8-2.8V75.6c0-2-1.1-2.6-1.8-2.7v-0.4l8.1-0.4l0.1,0.1c-0.1,1.1-0.2,2.6-0.2,3.5h0.1c1.1-2.9,3.1-4,5.8-4
		c3.4,0,5.7,2,5.7,6.1v9.2c0,2,0.9,2.6,1.8,2.8v0.4h-9.4v-0.4c0.6-0.1,1.3-0.7,1.3-2.6V79z"/>
		<path
			fill="#FFFFFF"
			d="M221.3,77.1h-0.6c-0.8-2.3-2.5-3.8-4.8-3.8c-1.5,0-2.8,0.9-2.8,2.2c0,1.2,0.8,2,3.7,3
		c4.2,1.4,5.3,3.3,5.3,5.7c0,4.6-4,6.2-8.3,6.2c-1.5,0-4-0.2-5.8-1l0-1.5l0-3.2h0.6c0.6,2.6,2.5,4.2,5.1,4.2c1.7,0,2.8-0.9,2.8-2.2
		c0-1.3-0.6-2-3.7-3.2c-3.4-1.3-5-3.1-5-5.8c0-3.8,3.4-6,7.9-6c1.4,0,3.7,0.3,5.4,1l0,1.4L221.3,77.1z"/>
		<path opacity="0.5" fill="#FFFFFF" d="M231,87.7c0.9-1.4,3.6-4.3,4.5-5.2l4.7-5c3.2-3.4,4.5-5.4,4.5-8c0-2.9-2.2-4.3-4.9-4.3
		c-2.9,0-5,1.5-5.3,3.7h-2.9c0.1-3.3,3-6.5,8.2-6.5c4.6,0,8.1,2.6,8.1,7c0,3.6-1.9,6.3-5.6,10.1l-7.4,7.6v0.2h12.9v2.8H231V87.7z"/>
		<path
			opacity="0.5"
			fill="#FFFFFF"
			d="M251.5,76.5c0-9,3.3-14.1,9.7-14.1c6.5,0,9.6,4.1,9.6,14c0,9.1-3.2,14.1-9.7,14.1
		C254.6,90.6,251.5,86.5,251.5,76.5z M267.6,76.5c0-6.7-1.1-11.1-6.3-11.1c-5,0-6.5,4.8-6.5,11.1c0,6.8,1.1,11.2,6.3,11.2
		C266.1,87.7,267.6,82.9,267.6,76.5z"/>
		<path opacity="0.5" fill="#FFFFFF" d="M279.3,66.6l-4.4,2.2h-0.2V66l5.2-3.1h2.5v27.2h-3.2V66.6z"/>
		<path
			opacity="0.5"
			fill="#FFFFFF"
			d="M291.4,76.6c1.1-2.6,3.5-3.9,6.5-3.9c5,0,8.2,3.3,8.2,8.6c0,5.7-3.7,9.3-8.7,9.3
		c-3.5,0-5.9-1.5-7.3-3.9c-1.5-2.5-1.9-5.9-1.9-10c0-5.5,1.7-14.2,9.9-14.2c4.2,0,6.9,1.9,7.3,5.1h-3.1c-0.4-1.4-1.7-2.3-4.1-2.3
		c-5.9,0-7,6.3-7,11.2v0.2H291.4z M303.1,81.5c0-3.6-1.9-6-5.5-6c-3.5,0-5.9,2.3-5.9,5.9c0,3.6,2,6.4,5.7,6.4
		C300.9,87.8,303.1,85.3,303.1,81.5z"/>
	</g>
</svg>
