<svg version="1.1" id="Layer_1" xmlns="http://www.w3.org/2000/svg" xmlns:xlink="http://www.w3.org/1999/xlink" x="0px" y="0px" width="1200px" height="90px" viewBox="0 0 1200 90" enable-background="new 0 0 1200 90" xml:space="preserve">
	<rect x="765.6" y="18" fill="#FFFFFF" width="434.4" height="72"/>
	<rect x="765.6" y="0" fill="#EF4123" width="434.4" height="18"/>
	<rect x="765.6" y="36" fill="#EF4123" width="434.4" height="18"/>
	<rect x="765.6" y="72" fill="#EF4123" width="434.4" height="18"/>
	<polygon fill="#0C2B57" points="831.8,94.6 -1,94.6 -1,0 775,0 "/>
	<g>
		<polygon opacity="0.2" fill="#FFFFFF" points="612.3,56.4 606.5,38.6 600.7,56.4 581.9,56.4 597.1,67.1 591.3,84.7 606.5,73.6
		621.7,84.6 615.9,67.1 631,56.4 	"></polygon>

		<polygon opacity="0.2" fill="#FFFFFF" points="661.9,13.4 656.1,-4.4 650.3,13.4 631.6,13.4 646.7,24.3 640.9,42 656.1,30.9
		671.3,41.9 665.5,24.3 680.6,13.4 	"/>

		<polygon opacity="0.2" fill="#FFFFFF" points="512.5,56.4 506.7,38.6 500.9,56.4 482.2,56.4 497.4,67.1 491.6,84.7 506.7,73.6
		521.9,84.6 516.1,67.1 531.3,56.4 	"></polygon>

		<polygon opacity="0.3" fill="#FFFFFF" points="561.6,13.4 555.8,-4.4 550,13.4 531.3,13.4 546.4,24.3 540.6,42 555.8,30.9
		571,41.9 565.2,24.3 580.3,13.4 	"></polygon>

		<polygon opacity="0.3" fill="#FFFFFF" points="712,56.4 706.2,38.6 700.4,56.4 681.7,56.4 696.9,67.1 691.1,84.7 706.2,73.6
		721.4,84.6 715.6,67.1 730.8,56.4 	"></polygon>

		<polygon opacity="0.3" fill="#FFFFFF" points="809.6,57.9 803.4,47.3 800.4,56.4 781.7,56.4 796.9,67.1 791.1,84.7 806.2,73.6
		821.4,84.6 815.6,67.1 815.6,67.1 	"/>

		<polygon opacity="0.3" fill="#FFFFFF" points="397,56.4 391.2,38.6 385.4,56.4 366.7,56.4 381.9,67.1 376.1,84.7 391.2,73.6
		406.4,84.6 400.6,67.1 415.8,56.4 	"></polygon>

		<polygon opacity="0.2" fill="#FFFFFF" points="762.2,13.4 756.4,-4.4 750.6,13.4 731.8,13.4 747,24.3 741.2,42 756.4,30.9
		771.5,41.9 765.7,24.3 780.9,13.4 	"/>

		<polygon opacity="0.2" fill="#FFFFFF" points="555.8,79.6 550.7,95.4 560.9,95.4 	"></polygon>

		<polygon opacity="0.2" fill="#FFFFFF" points="756.4,79.6 751.2,95.4 761.5,95.4 	"></polygon>

		<polygon opacity="0.2" fill="#FFFFFF" points="656.1,79.6 650.9,95.4 661.2,95.4 	"></polygon>

		<polygon opacity="0.2" fill="#FFFFFF" points="140,13.4 134.2,-4.4 128.5,13.4 109.7,13.4 124.9,24.3 119.1,42 134.2,30.9
		149.4,41.9 143.6,24.3 158.8,13.4 	"/>

		<polygon opacity="0.2" fill="#FFFFFF" points="340.6,13.4 334.8,-4.4 329,13.4 310.3,13.4 325.4,24.3 319.7,42 334.8,30.9
		350,41.9 344.2,24.3 359.4,13.4 	"/>

		<polygon opacity="0.2" fill="#FFFFFF" points="440.9,13.4 435.1,-4.4 429.3,13.4 410.6,13.4 425.7,24.3 419.9,42 435.1,30.9
		450.3,41.9 444.5,24.3 459.6,13.4 	"></polygon>

		<polygon opacity="0.3" fill="#FFFFFF" points="240.3,13.4 234.5,-4.4 228.7,13.4 210,13.4 225.2,24.3 219.4,42 234.5,30.9
		249.7,41.9 243.9,24.3 259.1,13.4 	"/>

		<polygon opacity="0.3" fill="#FFFFFF" points="50.3,13.4 44.5,-4.4 38.7,13.4 20,13.4 35.2,24.3 29.4,42 44.5,30.9 59.7,41.9
		53.9,24.3 69.1,13.4 	"></polygon>
	</g>
	<g>
		<path
			fill="#FFFFFF"
			d="M38,63.7v0.4c-0.8,0.1-1.8,0.7-1.8,2.7v13c0,5.3,1.6,8.5,5.8,8.5c4.5,0,6.3-3.3,6.3-9v-7
		c0-1.6-0.1-4.8-0.3-5.9c-0.2-1.4-0.9-2.2-2.1-2.3v-0.4h7v0.4c-1,0.2-1.8,0.9-2,2.4c-0.2,1.3-0.3,4.3-0.3,5.9l-0.1,7.6
		c-0.1,6.2-2.9,10.5-9.9,10.5c-3.2,0-5.5-0.6-7.2-1.7c-3-2-3.8-5.5-3.8-9.4V66.8c0-2-1-2.6-1.8-2.7v-0.4H38z"/>
		<path
			fill="#FFFFFF"
			d="M54.8,87.1l-0.1-3.4h0.5c1.1,3.4,3.8,5,6.9,5c2.8,0,4.8-1.4,4.8-4c0-2.6-1.7-4-5.6-5.5
		c-4.3-1.6-6.6-3.9-6.6-7.8c0-5.3,4.2-8.1,10.1-8.1c2.3,0,5.2,0.5,7.1,1.5l0.1,1.9l0.1,3.1h-0.5C70.5,66.3,67.9,65,65,65
		c-2.6,0-4.7,1.2-4.7,3.7c0,2.6,2.1,3.6,6,5.1c4.9,1.9,7,4.1,7,8.1c0,5.5-4.4,8.5-10.8,8.5c-2.3,0-5.4-0.3-7.7-1.3L54.8,87.1z"/>
		<path
			fill="#FFFFFF"
			d="M91.3,71.7c5.6,0,8.1,3.2,8.1,9.1l-0.2,0.3H88.7v0.4c0.2,3.6,2.3,5.8,5.8,5.8c1.5,0,3.1-0.3,4.3-1.2
		l0.3,0.2c-1.4,2.3-4.1,4.2-8.2,4.2c-5.4,0-8.9-3.9-8.9-9C82,74.3,87.4,71.7,91.3,71.7z M90.6,79.6c1.9,0,2.5-0.1,2.8-0.4
		c0.1-0.2,0.1-0.8,0.1-1.2c0-3.9-0.7-4.9-2.2-4.9c-1.2,0-2,1.3-2.3,2.9c-0.3,1.3-0.3,2.8-0.3,3.6H90.6z"/>
		<path fill="#FFFFFF" d="M109.1,86.9c0,2,0.9,2.6,1.8,2.8v0.4h-10v-0.4c0.9-0.1,1.8-0.8,1.8-2.8V66.8c0-2-1.1-2.6-1.8-2.7v-0.4
		l8.2-0.3l0.1,0.1c-0.1,0.9-0.1,1.9-0.1,3.1V86.9z"/>
		<path
			fill="#FFFFFF"
			d="M121.4,71.7c5.6,0,8.1,3.2,8.1,9.1l-0.2,0.3h-10.7v0.4c0.2,3.6,2.3,5.8,5.8,5.8c1.5,0,3.1-0.3,4.3-1.2
		l0.3,0.2c-1.4,2.3-4.1,4.2-8.2,4.2c-5.4,0-8.9-3.9-8.9-9C112,74.3,117.4,71.7,121.4,71.7z M120.6,79.6c1.9,0,2.5-0.1,2.8-0.4
		c0.1-0.2,0.1-0.8,0.1-1.2c0-3.9-0.7-4.9-2.2-4.9c-1.2,0-2,1.3-2.3,2.9c-0.3,1.3-0.3,2.8-0.3,3.6H120.6z"/>
		<path
			fill="#FFFFFF"
			d="M141.4,71.7c4.5,0,7,2,7,4.2c0,1.4-0.9,3-3.6,3c-0.4,0-1.4-0.1-1.5-0.2c0-0.9,0-1.7,0-2.2
		c0-2.5-0.7-3.4-1.9-3.4c-2,0-3.2,2.8-3.2,6.8c0,4.7,2.1,7.4,5.6,7.4c1.6,0,2.9-0.4,4-1.2l0.3,0.2c-1.7,3.1-5.3,4.2-7.8,4.2
		c-5.1,0-8.7-3.4-8.7-9C131.5,75.2,135.9,71.7,141.4,71.7z"/>
		<path fill="#FFFFFF" d="M158,66.3v6.1h5.5l-0.3,2.2H158v9.8c0,2.3,1.1,3.2,2.9,3.2c1,0,1.8-0.2,2.5-0.6l0.2,0.2
		c-1.3,2.1-3.8,3.3-6.3,3.3c-4,0-5.6-2.3-5.6-5.2V74.6h-2.1v-0.5c1.9-0.7,5.9-4.1,7.9-7.8H158z"/>
		<path
			fill="#FFFFFF"
			d="M172.6,86.9c0,2,0.9,2.6,1.8,2.8v0.4h-10v-0.4c0.9-0.1,1.8-0.8,1.8-2.8V75.6c0-2-1.1-2.6-1.8-2.7v-0.4
		l8.2-0.4l0.1,0.1c-0.1,1.3-0.2,2.7-0.2,4.2V86.9z M169.4,62.9c2.1,0,3.6,1.2,3.6,3.3c0,1.9-1.5,3.3-3.6,3.3c-2,0-3.6-1.2-3.6-3.3
		C165.8,64.2,167.4,62.9,169.4,62.9z"/>
		<path fill="#FFFFFF" d="M195.1,80.9c0,5.7-4.3,9.6-9.8,9.6c-6,0-9.8-3.1-9.8-9.2c0-5.8,4.2-9.6,9.8-9.6
		C191.3,71.7,195.1,74.8,195.1,80.9z M182.4,81.1c0,5.8,1,7.9,3,7.9c1.7,0,2.9-2.1,2.9-8c0-5.7-0.9-7.8-3-7.8
		C183.6,73.2,182.4,75.3,182.4,81.1z"/>
		<path
			fill="#FFFFFF"
			d="M209.9,79c0-2.9-1.1-4-2.8-4c-1.1,0-2.1,0.6-2.3,1.4v10.8c0,1.9,0.6,2.5,1.3,2.6v0.4h-9.4v-0.4
		c0.9-0.1,1.8-0.8,1.8-2.8V75.6c0-2-1.1-2.6-1.8-2.7v-0.4l8.1-0.4l0.1,0.1c-0.1,1.1-0.2,2.6-0.2,3.5h0.1c1.1-2.9,3.1-4,5.8-4
		c3.4,0,5.7,2,5.7,6.1v9.2c0,2,0.9,2.6,1.8,2.8v0.4h-9.4v-0.4c0.6-0.1,1.3-0.7,1.3-2.6V79z"/>
		<path
			fill="#FFFFFF"
			d="M233.3,77.1h-0.6c-0.8-2.3-2.5-3.8-4.8-3.8c-1.5,0-2.8,0.9-2.8,2.2c0,1.2,0.8,2,3.7,3
		c4.2,1.4,5.3,3.3,5.3,5.7c0,4.6-4,6.2-8.3,6.2c-1.5,0-4-0.2-5.8-1l0-1.5l0-3.2h0.6c0.6,2.6,2.5,4.2,5.1,4.2c1.7,0,2.8-0.9,2.8-2.2
		c0-1.3-0.6-2-3.7-3.2c-3.4-1.3-5-3.1-5-5.8c0-3.8,3.4-6,7.9-6c1.4,0,3.7,0.3,5.4,1l0,1.4L233.3,77.1z"/>
		<path opacity="0.5" fill="#FFFFFF" d="M243,87.7c0.9-1.4,3.6-4.3,4.5-5.2l4.7-5c3.2-3.4,4.5-5.4,4.5-8c0-2.9-2.2-4.3-4.9-4.3
		c-2.9,0-5,1.5-5.3,3.7h-2.9c0.1-3.3,3-6.5,8.2-6.5c4.6,0,8.1,2.6,8.1,7c0,3.6-1.9,6.3-5.6,10.1l-7.4,7.6v0.2h12.9v2.8H243V87.7z"/>
		<path
			opacity="0.5"
			fill="#FFFFFF"
			d="M263.5,76.5c0-9,3.3-14.1,9.7-14.1c6.5,0,9.6,4.1,9.6,14c0,9.1-3.2,14.1-9.7,14.1
		C266.6,90.6,263.5,86.5,263.5,76.5z M279.6,76.5c0-6.7-1.1-11.1-6.3-11.1c-5,0-6.5,4.8-6.5,11.1c0,6.8,1.1,11.2,6.3,11.2
		C278.1,87.7,279.6,82.9,279.6,76.5z"/>
		<path opacity="0.5" fill="#FFFFFF" d="M291.3,66.6l-4.4,2.2h-0.2V66l5.2-3.1h2.5v27.2h-3.2V66.6z"/>
		<path
			opacity="0.5"
			fill="#FFFFFF"
			d="M303.4,76.6c1.1-2.6,3.5-3.9,6.5-3.9c5,0,8.2,3.3,8.2,8.6c0,5.7-3.7,9.3-8.7,9.3
		c-3.5,0-5.9-1.5-7.3-3.9c-1.5-2.5-1.9-5.9-1.9-10c0-5.5,1.7-14.2,9.9-14.2c4.2,0,6.9,1.9,7.3,5.1h-3.1c-0.4-1.4-1.7-2.3-4.1-2.3
		c-5.9,0-7,6.3-7,11.2v0.2H303.4z M315.1,81.5c0-3.6-1.9-6-5.5-6c-3.5,0-5.9,2.3-5.9,5.9c0,3.6,2,6.4,5.7,6.4
		C312.9,87.8,315.1,85.3,315.1,81.5z"/>

	</g>
</svg>
