<svg version="1.1" id="Layer_1" xmlns="http://www.w3.org/2000/svg" xmlns:xlink="http://www.w3.org/1999/xlink" x="0px" y="0px" width="155px" height="85px" viewBox="-197 58 155 85" enable-background="new -197 58 155 85" xml:space="preserve">

	<circle fill="#E2E9EB" cx="-156.4" cy="100.2" r="39.5"/>
	<path fill="#141E39" d="M-154.8,86.3c-19.3-7.5-13.9-20-13.9-20c5.9,6.4,17.7,19.5,17.7,19.5L-154.8,86.3z"/>
	<path
		fill="#0C2B57"
		d="M-169.2,137.5c2.5-2,4.4-4.4,4.4-7.5v-16.6c1.3-0.3,3.7-1.6,3.7-1.6c4.9,5,11.1,1.5,11.1,1.5
							c2.7,4.8,11.1,9.4,15.4,7.1c7.4-3.9,3.5-10.4,3.5-10.4s-8.8-15.2-13.4-22.6c-0.7-1.3-1.7-2.1-2.8-2.8
							c-0.1-0.2-2.9-1.7-5.6-1.5c-4.8-0.3-9.5,1.3-9.5,1.3l-17.5,7.5l-16,7c0,0.4,0,0.9,0,1.3C-195.9,117.5-184.8,132.3-169.2,137.5
							z"/>
	<path fill="#0C2B57" d="M-166.6,138.4v-9.3c-4.1,1.1-6.3,3.6-7.3,6.5C-171.6,136.8-169.2,137.7-166.6,138.4z"/>
	<circle fill="#FFFFFF" cx="-150" cy="95.1" r="2.1"/>
	<path fill="#0C2B57" d="M-151.4,85.1c-17.4-11.4-9.5-22.5-9.5-22.5c4.6,7.5,13.4,22.7,13.4,22.7L-151.4,85.1z"/>

	<polygon fill="#0C2B57" points="-179.9,95.9 -179.9,93.2 -161.5,85.2 					"/>

	<circle fill="#E2E9EB" cx="-83" cy="100" r="39.5"/>

	<path fill="#BF391F" d="M-78.9,83.5l16.4,15.7c2.2-1.2,5.1-3.8,6.2-9l-5-2.6l5.4,0.3c0.2-1.9,0.1-4.2-0.2-6.7
							C-57.9,67.7-69.2,67-69.2,67C-72.5,72.4-78.9,83.5-78.9,83.5z"/>

	<path fill="#00638B" d="M-79.1,84.1l11.2,10.7c0.9-1.4,1.8-3.2,2.3-5.5l-5.1-2.6l5.4,0.3c0.2-1.9,0.1-4.2-0.2-6.7
								c-0.7-5.2-2.8-8.5-5.2-10.6C-74.1,75.4-79.2,84.1-79.1,84.1z"/>

	<path fill="#FFFFFF" d="M-87.8,110.6c-15.7-0.5-19.9-11-19.9-11c0-1,0.6-0.6,0.6-0.6c8.3,8.9,20.1,7.4,20.1,7.4
							C-85,110.1-87.7,110.7-87.8,110.6z"/>
	<path
		fill="#EF4123"
		d="M-107.6,120.2c0,0,9,0.7,9.3-11.2l4.9,0.3v28.8c3.4,0.9,6.9,1.4,10.5,1.4c2.5,0,4.9-0.3,7.3-0.7v-4.1
							c0,0,2.4,1.3,7,2.1c14.8-5.7,25.2-20,25.2-36.8c0-6.5-1.6-12.6-4.4-18l-7.4-0.7c0,0-35.9-8.9-48.2,5.4c0,0-3.7,2.4-2.8,14.3
							v9.9c0,0,0.3,3.3-2.6,3.3c-2.8,0-2.4-2.5-2.4-2.5s-3.9-1.1-6.1,0.3C-117.3,112-116.8,120.2-107.6,120.2z"/>
	<circle fill="#FFFFFF" cx="-98.1" cy="96.6" r="1.9"/>

	<path
		fill="#BF391F"
		d="M-84.3,82.9l12.7,14.7c2.5-1.1,6-3.5,8.3-8.4l-4.5-2.5l5.3,0.3c0.4-1.1,0.7-1.8,1-3.1l6.2,1.4v-3.2
								c-2.6-0.6-4.6-1-5.8-1.2c0-0.1,0-0.1,0-0.1c0.1-0.2,0.1-0.5,0.1-0.7c-4.9-0.9-12.2-1.8-19.6-1.5
								C-82.7,81.1-84.3,82.9-84.3,82.9z"/>
	<path
		fill="#BF391F"
		d="M-84.2,82.9l12.1,14c2.5-1.1,5.2-2.7,7.5-7.6l-4.7-3h6.1c0.4-1.3,0.8-1.9,1-3.3l16.5,3.8
								c-0.3-0.8-0.6-1.6-1-2.4c-6.5-1.5-14.9-3.4-15.4-3.5c0,0,0-0.1,0-0.2C-62,80.5-62,80.2-62,80c-4.9-0.8-11.2-1.7-18.6-1.4
								C-82.7,81.1-84.3,82.9-84.2,82.9z"/>

	<path fill="#EF4123" d="M-89.7,84.5l18.2,13.2c2.2-1.2,5.1-3.8,6.2-9l-5.1-2.6l5.4,0.3c0.2-1.9,0.1-4.2-0.2-6.7
							C-67,66.2-78.3,65.5-78.3,65.5C-81.6,70.9-89.8,84.5-89.7,84.5z"/>
	<path fill="#FFFFFF" d="M-91.7,113.1c-16.5-0.5-20.4-11.1-20.4-11.1c0-1,0.6-0.6,0.6-0.6c8.3,8.9,20.1,7.4,20.1,7.4
							c1.1,0.4,1.3,1.9,1.2,2.5C-90.4,112.7-91.8,113.1-91.7,113.1z"/>

</svg>
